<?xml version="1.0" standalone="no"?>
<!DOCTYPE svg PUBLIC "-//W3C//DTD SVG 20010904//EN"
 "http://www.w3.org/TR/2001/REC-SVG-20010904/DTD/svg10.dtd">
<svg version="1.0" xmlns="http://www.w3.org/2000/svg"
 width="1500.000000pt" height="1500.000000pt" viewBox="0 0 1500.000000 1500.000000"
 preserveAspectRatio="xMidYMid meet">
<metadata>
Created by potrace 1.14, written by Peter Selinger 2001-2017
</metadata>
<g transform="translate(0.000000,1500.000000) scale(0.100000,-0.100000)"
fill="#000000" stroke="none">
<path d="M7924 13036 c-194 -117 -460 -296 -553 -373 -18 -15 -41 -32 -50 -37
-9 -5 -18 -12 -21 -16 -3 -3 -32 -27 -65 -52 -33 -25 -72 -56 -86 -70 -14 -13
-47 -42 -74 -63 -111 -90 -400 -372 -490 -479 -22 -26 -47 -55 -56 -64 -13
-14 -112 -137 -142 -177 -4 -5 -24 -32 -45 -60 -21 -27 -58 -79 -83 -115 -24
-36 -46 -67 -49 -70 -3 -3 -21 -30 -40 -60 -18 -30 -48 -78 -67 -107 -18 -28
-33 -54 -33 -56 0 -3 -16 -34 -36 -69 -94 -164 -277 -568 -301 -663 -1 -5 -9
-30 -18 -53 -15 -43 -106 -358 -120 -417 -13 -55 -15 -65 -20 -87 -2 -13 -9
-43 -14 -68 -10 -47 -23 -115 -26 -140 -1 -8 -5 -28 -8 -45 -4 -16 -9 -50 -12
-75 -3 -25 -8 -56 -10 -70 -7 -34 -12 -79 -20 -175 -4 -44 -9 -93 -11 -110
-25 -266 -25 -737 1 -1055 7 -94 16 -196 20 -230 2 -19 7 -63 10 -98 4 -35 8
-71 10 -81 2 -10 6 -42 10 -72 3 -30 19 -133 35 -229 16 -96 31 -192 34 -214
4 -21 8 -41 10 -45 3 -3 7 -27 11 -51 3 -25 10 -61 15 -80 5 -19 11 -48 13
-65 3 -16 11 -54 17 -83 7 -29 10 -55 8 -57 -11 -11 -297 264 -385 370 -88
106 -177 235 -235 343 -66 121 -75 139 -103 202 -82 185 -167 485 -190 670 -4
30 -8 57 -10 60 -2 3 -6 37 -10 75 -4 39 -8 81 -11 95 -11 67 -18 272 -18 532
-1 157 -4 284 -9 281 -4 -2 -49 -53 -100 -112 -145 -169 -181 -212 -191 -230
-5 -9 -12 -18 -16 -21 -29 -23 -278 -386 -301 -440 -6 -14 -16 -32 -23 -40
-29 -33 -191 -349 -241 -470 -44 -105 -48 -114 -51 -125 -2 -5 -31 -91 -65
-190 -34 -99 -70 -214 -81 -255 -18 -74 -56 -236 -64 -275 -2 -11 -6 -31 -9
-45 -2 -14 -7 -41 -10 -60 -4 -19 -12 -71 -20 -115 -23 -136 -32 -211 -50
-425 -24 -287 -24 -805 1 -1100 7 -86 32 -308 39 -340 3 -14 7 -41 11 -60 7
-45 41 -198 60 -273 9 -32 17 -66 19 -75 10 -46 59 -204 95 -304 163 -450 394
-857 694 -1218 223 -269 517 -542 777 -720 12 -8 38 -27 58 -41 47 -34 231
-149 237 -149 2 0 21 -11 42 -24 112 -71 415 -212 595 -277 106 -39 286 -98
312 -103 11 -2 56 -13 100 -24 44 -12 91 -23 105 -26 14 -3 61 -12 105 -21 44
-9 91 -18 105 -20 14 -1 52 -8 85 -14 69 -12 174 -22 380 -36 72 -5 392 -5
445 -1 25 3 83 7 130 10 47 4 92 9 100 11 8 2 35 6 60 9 44 5 216 32 255 40
148 31 346 83 450 117 55 18 102 33 105 34 3 0 26 8 50 19 25 10 54 22 65 26
175 68 418 183 550 260 22 13 49 28 60 34 109 61 462 309 500 352 6 6 33 28
60 50 52 40 341 325 411 404 106 121 324 409 324 429 0 5 3 11 8 13 6 3 37 50
120 183 25 40 191 369 233 460 103 228 238 710 273 975 3 25 8 55 10 67 3 12
8 53 11 90 4 37 9 76 11 86 22 120 22 817 0 934 -2 10 -7 50 -10 88 -18 187
-71 469 -126 670 -17 61 -32 117 -35 125 -2 8 -22 67 -44 130 -23 63 -43 120
-45 125 -3 11 -8 22 -61 152 -66 159 -173 364 -267 511 -16 24 -28 45 -28 48
0 5 -146 221 -163 240 -25 28 -37 43 -37 48 0 2 -9 15 -19 28 -11 12 -48 57
-81 98 -159 194 -450 491 -607 620 -80 66 -235 191 -268 215 -22 16 -44 33
-50 38 -5 4 -37 27 -70 50 -54 39 -97 69 -325 225 -85 59 -290 214 -360 271
-30 25 -65 55 -79 66 -169 140 -425 402 -547 562 -25 32 -50 65 -57 73 -66 84
-197 299 -255 420 -181 377 -240 736 -187 1147 3 29 10 66 15 83 5 16 7 30 5
30 -3 0 0 11 5 25 5 14 12 36 14 48 18 95 108 321 164 410 13 22 22 40 20 41
-2 1 -48 -25 -104 -58z m2254 -5913 c99 -159 196 -369 274 -593 17 -47 32 -96
35 -110 2 -14 11 -47 18 -75 17 -57 53 -246 61 -319 3 -27 9 -72 14 -100 9
-56 6 -494 -5 -566 -23 -164 -27 -192 -50 -300 -18 -87 -78 -290 -106 -365
-13 -33 -24 -62 -24 -65 -1 -3 -9 -23 -19 -45 -10 -22 -25 -58 -34 -80 -26
-64 -123 -250 -133 -253 -5 -2 -9 -9 -9 -16 0 -16 -159 -254 -214 -321 -136
-165 -363 -394 -461 -463 -5 -4 -28 -21 -50 -38 -60 -47 -194 -137 -250 -169
-27 -16 -52 -32 -55 -35 -5 -6 -249 -127 -310 -154 -97 -42 -353 -125 -435
-142 -11 -2 -31 -7 -45 -10 -37 -8 -170 -34 -205 -39 -90 -13 -116 -16 -185
-22 -137 -11 -478 -5 -565 11 -11 2 -42 7 -70 11 -80 11 -248 45 -275 55 -14
5 -36 12 -50 14 -183 37 -488 170 -759 331 l-50 31 277 -1 c242 0 401 7 452
20 8 2 42 6 75 10 33 3 78 10 100 15 22 5 56 11 75 14 72 12 98 18 210 47 63
17 120 32 125 33 46 9 290 96 370 131 17 8 48 21 70 30 79 33 271 130 311 157
23 16 45 28 48 28 7 0 109 62 116 71 3 3 16 12 30 19 29 15 253 170 260 181 3
3 27 24 55 44 130 100 367 334 513 509 56 67 175 229 231 316 33 52 65 100 69
105 23 28 170 314 220 425 39 88 71 170 65 170 -3 0 -1 6 5 13 23 28 148 458
167 572 2 11 6 36 9 55 3 19 8 46 10 60 6 32 23 163 33 260 4 41 8 200 8 352
0 152 0 276 1 275 1 -1 24 -39 52 -84z"/>
</g>
</svg>
