
<svg width="20" height="20" viewBox="0 0 20 20" fill="none" xmlns="http://www.w3.org/2000/svg">
<path d="M19.9738 3.02354C19.9675 2.88613 19.9425 2.74248 19.9113 2.60507C19.8176 2.18659 19.6239 1.78685 19.3365 1.42458C19.224 1.28093 19.0928 1.14352 18.9616 1.01235C18.6805 0.750023 18.3619 0.531416 18.012 0.35653C17.4684 0.0879544 16.8562 -0.0307192 16.2502 0.00675641C15.3942 0.0567239 14.607 0.412742 14.0322 0.99986C13.8073 1.21847 13.6199 1.47455 13.4512 1.79309C13.4325 1.83057 13.4137 1.8618 13.395 1.89927C12.7702 3.37956 11.2895 4.32894 9.62764 4.32894H5.88529C4.11096 4.32894 2.44908 3.49199 1.43696 2.0929C1.23704 1.81183 0.874672 1.69316 0.549794 1.79934C0.218669 1.90552 0 2.21157 0 2.5551V7.55809C0 9.90657 1.01212 12.1239 2.81769 13.6729L3.08009 13.8977C4.2734 14.9033 5.7166 15.5716 7.25353 15.834V19.2068C7.25353 19.644 7.6034 20 8.04698 20H10.09C10.5335 20 10.8834 19.644 10.8834 19.2068C10.8834 18.7633 10.5335 18.4135 10.09 18.4135H8.84043V15.9651C10.4211 15.9526 11.983 15.5466 13.3512 14.7909C14.707 14.0414 15.8565 12.9733 16.6812 11.6867C17.8558 9.85035 18.2244 7.53311 17.6996 5.34703C17.6809 5.28457 17.6684 5.22836 17.6559 5.17839C17.6434 5.13467 17.6371 5.09095 17.6371 5.05972C17.6371 4.89732 17.7246 4.7849 17.7746 4.74118C17.8308 4.68496 17.9245 4.61626 18.062 4.60377C18.0745 4.60377 18.1182 4.59752 18.1307 4.59752H19.2115C19.424 4.59752 19.6301 4.51008 19.7801 4.35393C19.93 4.19778 20.0112 3.98542 19.9987 3.77306L19.9738 3.02354ZM18.1307 3.01105C18.037 3.01105 17.9495 3.0173 17.8933 3.02354C17.431 3.07351 16.9999 3.27963 16.6687 3.60441C16.2689 3.99166 16.0502 4.50383 16.0502 5.05972C16.0502 5.22211 16.069 5.397 16.1189 5.57813L16.1502 5.7093C16.5813 7.48939 16.2876 9.35692 15.3442 10.831C14.6632 11.8928 13.7074 12.7797 12.5828 13.4043C11.427 14.0414 10.1025 14.3787 8.75921 14.3787C7.04736 14.3787 5.39797 13.779 4.10471 12.686L3.81107 12.4362C2.3991 11.2245 1.58691 9.44437 1.58691 7.55809V4.48509C2.79895 5.40324 4.31088 5.92166 5.88529 5.92166H9.62764C11.9205 5.92166 13.9635 4.59752 14.8444 2.54885C14.8507 2.54261 14.8507 2.54261 14.8507 2.53636C14.9319 2.38021 15.0319 2.2428 15.1568 2.11788C15.4629 1.80559 15.8878 1.61821 16.3501 1.58698C16.6812 1.56824 17.0124 1.63695 17.306 1.7806C17.5184 1.88054 17.7059 2.0117 17.8683 2.16785C17.9495 2.2428 18.0245 2.324 18.0932 2.41144C18.2307 2.58633 18.3244 2.77371 18.3681 2.95484C18.3681 2.97358 18.3744 2.99231 18.3744 3.01105H18.1307Z" fill="current"/>
</svg>
